<?xml version="1.0" standalone="no"?>
<!DOCTYPE svg PUBLIC "-//W3C//DTD SVG 20010904//EN"
 "http://www.w3.org/TR/2001/REC-SVG-20010904/DTD/svg10.dtd">
<svg version="1.0" xmlns="http://www.w3.org/2000/svg"
 width="547.000000pt" height="547.000000pt" viewBox="0 0 547.000000 547.000000"
 preserveAspectRatio="xMidYMid meet">
<metadata>
Created by potrace 1.14, written by Peter Selinger 2001-2017
</metadata>
<g transform="translate(0.000000,547.000000) scale(0.100000,-0.100000)"
fill="#000000" stroke="none">
<path d="M1120 5250 c-347 -93 -603 -382 -675 -763 -19 -102 -19 -300 0 -411
43 -244 167 -505 342 -715 210 -251 445 -436 983 -776 409 -258 599 -404 785
-606 144 -157 257 -350 311 -534 21 -72 27 -118 31 -233 3 -79 2 -147 -3 -152
-5 -5 -41 5 -84 24 l-75 32 -43 87 c-156 315 -541 412 -842 212 -271 -180
-351 -568 -178 -863 43 -73 177 -208 250 -251 32 -18 97 -47 145 -64 77 -27
105 -31 219 -35 110 -4 144 -1 215 17 227 57 437 215 556 419 26 44 26 44 72
38 209 -28 452 -15 647 34 300 75 555 220 774 440 223 224 371 494 446 815 27
113 28 133 29 350 0 254 -12 334 -76 527 -140 422 -466 788 -869 977 -461 216
-1000 208 -1456 -22 -276 -139 -549 -404 -703 -681 -28 -51 -51 -95 -51 -99 0
-9 248 -127 264 -127 6 1 22 24 36 52 14 28 46 83 72 122 305 465 870 697
1416 581 488 -103 884 -472 1024 -955 48 -167 63 -424 33 -591 -70 -405 -304
-744 -655 -953 -224 -133 -530 -203 -791 -182 l-86 8 8 41 c13 69 10 289 -6
380 -39 223 -140 448 -297 658 -86 116 -299 325 -443 437 -66 51 -218 157
-338 235 -693 452 -791 523 -966 697 -219 219 -363 475 -401 713 -18 109 -8
293 20 382 87 276 303 454 551 455 154 0 283 -60 364 -170 102 -139 100 -307
-4 -443 l-48 -62 17 -87 c48 -234 232 -421 467 -474 427 -95 817 305 712 731
-12 48 -59 165 -67 165 -5 0 -205 -115 -241 -139 -12 -8 -11 -16 4 -53 26 -63
24 -170 -4 -233 -98 -222 -408 -247 -535 -42 l-29 47 36 78 c56 120 70 188 64
317 -8 187 -64 313 -202 450 -94 93 -161 135 -282 178 -79 28 -102 31 -228 34
-116 2 -153 -1 -215 -17z m1180 -4055 c44 -22 97 -71 116 -108 8 -15 20 -55
27 -89 l13 -63 74 -44 c41 -24 113 -61 160 -82 47 -21 86 -42 88 -47 5 -17
-126 -147 -184 -182 -179 -108 -396 -108 -546 0 -114 81 -173 200 -166 330 9
148 91 256 228 301 39 13 152 4 190 -16z"/>
</g>
</svg>
